# xmcd
#
# Track frame offsets:
#	150
#	12746
#	22698
#	33633
#	45237
#	57492
#	67510
#	73238
#	83457
#	94152
#	105451
#	115414
#	124719
#	135876
#	146904
#	158426
#	171174
#	183461
#	192196
#	204298
#	211190
#	222079
#	233724
#	245025
#	252744
#	260344
#	264272
#	271312
#	279582
#	289694
#	301260
#	312230
#	324276
#	333040
#
# Disc length: 4599 seconds
#
# Revision: 1
# Processed by: cddbd v1.5.2PL0 Copyright (c) Steve Scherf et al.
# Submitted via: audiograbber 1.83.01
#
DISCID=db11f522
DTITLE=Johnny Cash - The Complete Sun Masters /Disc 1
DYEAR=2008
DGENRE=
TTITLE0=Folsom Prison Blues
TTITLE1=Hey! Porter
TTITLE2=Cry, Cry, Cry
TTITLE3=So Doggone Lonesome
TTITLE4=I Walk The Line
TTITLE5=Get Rhythm
TTITLE6=My Treasure
TTITLE7=There You Go
TTITLE8=Train Of Love
TTITLE9=Wide Open Road (Re-Recording)
TTITLE10=Goodbye, Little Darlin´
TTITLE11=Luther Played The Boogie
TTITLE12=Mean Eyed Cat
TTITLE13=I Love You Because
TTITLE14=Port Of Lonely Hearts
TTITLE15=Folsom Prison Blues (Overdubbed)
TTITLE16=I Walk The Line (Overdubbed)
TTITLE17=Two Timin´ Woman
TTITLE18=Goodnight Irene (Overdubbed)
TTITLE19=You´re My Baby
TTITLE20=Cry, Cry, Cry (Alternate)
TTITLE21=Wide OpenRoad (Original)
TTITLE22=My Treasure (Alternate)
TTITLE23=Rock´n´Roll Ruby (Demo)
TTITLE24=You´re My Baby (Undubbed)
TTITLE25=One More ride (Incomplete)
TTITLE26=Brakman´s Blues (Incomplete)
TTITLE27=Wide Open Road (Demo)
TTITLE28=Get Rhythm (Microphone check)
TTITLE29=Folsom Prison Blues (Alternate)
TTITLE30=I Love You because (Undubbed)
TTITLE31=I Walk The Line (Alternate)
TTITLE32=Two Timin´ Woman (Alternate)
TTITLE33=Goodnight Irene (Undubbed)
EXTD=
EXTT0=
EXTT1=
EXTT2=
EXTT3=
EXTT4=
EXTT5=
EXTT6=
EXTT7=
EXTT8=
EXTT9=
EXTT10=
EXTT11=
EXTT12=
EXTT13=
EXTT14=
EXTT15=
EXTT16=
EXTT17=
EXTT18=
EXTT19=
EXTT20=
EXTT21=
EXTT22=
EXTT23=
EXTT24=
EXTT25=
EXTT26=
EXTT27=
EXTT28=
EXTT29=
EXTT30=
EXTT31=
EXTT32=
EXTT33=
PLAYORDER=
